<svg width="74" height="45" viewBox="0 0 74 45" fill="none" xmlns="http://www.w3.org/2000/svg">
<g id="Group">
<g id="Group_2">
<g id="Group_3">
<path id="Vector" d="M67.294 0.027832H10.4062C9.25303 0.027832 8.22803 0.924712 8.22803 2.20597V4.76848V13.8654V41.6687H69.4721V13.7373V4.64036V2.07784C69.4721 0.924712 68.4471 0.027832 67.294 0.027832Z" fill="#571D00"/>
<path id="Vector_2" d="M72.5723 41.5406H5C4.44772 41.5406 4 41.9883 4 42.5406V44C4 44.5523 4.44772 45 5 45H72.5723C73.1245 45 73.5723 44.5523 73.5723 44V42.5406C73.5723 41.9883 73.1245 41.5406 72.5723 41.5406Z" fill="#571D00"/>
<path id="Vector_3" d="M66 3H12C11.4477 3 11 3.44772 11 4V38C11 38.5523 11.4477 39 12 39H66C66.5523 39 67 38.5523 67 38V4C67 3.44772 66.5523 3 66 3Z" fill="#FFD300"/>
</g>
<path id="Vector_4" d="M53.3282 17.5811H22.9624V25.653H53.3282V17.5811Z" fill="#E30613"/>
<path id="Vector_5" d="M45.1284 21.0404L57.6847 26.2936L53.841 28.0873L57.6847 31.4186L55.3785 33.7249L51.6628 29.8811L50.1253 33.7249L45.1284 21.0404Z" fill="white" stroke="#571D00" stroke-width="0.5" stroke-miterlimit="10"/>
</g>
<g id="Group 864">
<path id="Vector_6" d="M17.6493 6H0V34H17.6493V6Z" fill="white"/>
<g id="Group_4">
<g id="Group_5">
<g id="Group_6">
<path id="Vector_7" d="M2.12354 9.05212H11.5453" stroke="#571D00" stroke-width="0.5" stroke-miterlimit="10"/>
<path id="Vector_8" d="M2.12305 11.9716H11.5448" stroke="#571D00" stroke-width="0.5" stroke-miterlimit="10"/>
<path id="Vector_9" d="M2.12305 14.7583H9.81973" stroke="#571D00" stroke-width="0.5" stroke-miterlimit="10"/>
<path id="Vector_10" d="M2.12305 17.6777H11.5448" stroke="#571D00" stroke-width="0.5" stroke-miterlimit="10"/>
<path id="Vector_11" d="M2.12305 20.5972H7.4311" stroke="#571D00" stroke-width="0.5" stroke-miterlimit="10"/>
<path id="Vector_12" d="M2.12305 23.5166H11.5448" stroke="#571D00" stroke-width="0.5" stroke-miterlimit="10"/>
<path id="Vector_13" d="M2.12305 26.436H9.81973" stroke="#571D00" stroke-width="0.5" stroke-miterlimit="10"/>
<path id="Vector_14" d="M2.12305 31.0806H5.17518" stroke="#571D00" stroke-width="0.5" stroke-miterlimit="10"/>
</g>
</g>
<g id="Group_7">
<g id="Group_8">
<path id="Vector_15" d="M13.27 9.05212H15.5259" stroke="#571D00" stroke-width="0.5" stroke-miterlimit="10"/>
<path id="Vector_16" d="M13.27 11.9716H15.5259" stroke="#571D00" stroke-width="0.5" stroke-miterlimit="10"/>
<path id="Vector_17" d="M13.27 14.7583H15.5259" stroke="#571D00" stroke-width="0.5" stroke-miterlimit="10"/>
<path id="Vector_18" d="M13.27 17.6777H15.5259" stroke="#571D00" stroke-width="0.5" stroke-miterlimit="10"/>
<path id="Vector_19" d="M13.27 20.5972H15.5259" stroke="#571D00" stroke-width="0.5" stroke-miterlimit="10"/>
<path id="Vector_20" d="M13.27 23.5166H15.5259" stroke="#571D00" stroke-width="0.5" stroke-miterlimit="10"/>
<path id="Vector_21" d="M13.27 26.436H15.5259" stroke="#571D00" stroke-width="0.5" stroke-miterlimit="10"/>
<path id="Vector_22" d="M13.27 31.0806H15.5259" stroke="#571D00" stroke-width="0.5" stroke-miterlimit="10"/>
</g>
</g>
</g>
</g>
</g>
</svg>
