<svg width="30" height="45" viewBox="0 0 30 45" fill="none" xmlns="http://www.w3.org/2000/svg">
<g id="Group">
<path id="Vector" d="M25.9004 0H3.9541C1.77441 0 -0.000976562 1.77539 -0.000976562 3.95508V41.0449C-0.000976562 43.2246 1.77441 45 3.9541 45H25.9004C28.0801 45 29.8555 43.2246 29.8555 41.0449V3.95508C29.8555 1.77539 28.0801 0 25.9004 0ZM3.9541 2.63672H25.9004C26.6299 2.63672 27.2188 3.22559 27.2188 3.95508V31.8164H2.63574V3.95508C2.63574 3.22559 3.22461 2.63672 3.9541 2.63672ZM25.9004 42.3633H3.9541C3.22461 42.3633 2.63574 41.7744 2.63574 41.0449V34.4531H27.2188V41.0449C27.2188 41.7744 26.6211 42.3633 25.9004 42.3633Z" fill="#5A1404"/>
<path id="Vector_2" d="M13.6045 37.0898H16.2412V39.7266H13.6045V37.0898Z" fill="#5A1404"/>
<path id="Vector_3" d="M22.7275 12.665H20.9521C21.0664 12.3135 21.1279 11.9355 21.1279 11.54C21.1279 9.46582 19.4404 7.77832 17.3662 7.77832C16.4346 7.77832 15.582 8.12109 14.9229 8.68359C14.2637 8.12109 13.4111 7.77832 12.4795 7.77832C10.4053 7.77832 8.71777 9.46582 8.71777 11.54C8.71777 11.9268 8.7793 12.3047 8.89355 12.665H7.11816V26.6748H22.7275V12.665ZM17.3662 10.415C17.9814 10.415 18.4912 10.916 18.4912 11.54C18.4912 12.1641 17.9902 12.665 17.3662 12.665H16.2412V11.54C16.2412 10.916 16.751 10.415 17.3662 10.415ZM11.3633 11.54C11.3633 10.9248 11.8643 10.415 12.4883 10.415C13.1123 10.415 13.6133 10.916 13.6133 11.54V12.665H12.4883C11.8643 12.665 11.3633 12.1553 11.3633 11.54ZM9.75488 15.3018H13.6045V24.0381H9.75488V15.3018ZM20.0908 24.0381H16.2412V15.3018H20.0908V24.0381Z" fill="#E63000"/>
</g>
</svg>
