<svg width="13" height="13" viewBox="0 0 13 13" fill="none" xmlns="http://www.w3.org/2000/svg">
<path d="M12.9985 12.9998H13.001V8.23136C13.001 5.89793 12.4983 4.10278 9.77127 4.10278C8.46109 4.10278 7.58003 4.82135 7.22201 5.50437H7.18393V4.32115H4.59912V12.9998H7.29057V8.7011C7.29057 7.56866 7.50385 6.4743 8.90544 6.4743C10.2867 6.4743 10.307 7.76671 10.307 8.77219V12.9998H12.9985Z" fill="white"/>
<path d="M0.212891 4.32153H2.90942V13.0002H0.212891V4.32153Z" fill="white"/>
<path d="M1.56155 0C0.698254 0 0 0.698254 0 1.56155C0 2.42485 0.698254 3.13834 1.56155 3.13834C2.42485 3.13834 3.1231 2.42231 3.1231 1.56155C3.12056 0.698254 2.42231 0 1.56155 0Z" fill="white"/>
</svg>
