<svg width="574" height="384" viewBox="0 0 574 384" fill="none" xmlns="http://www.w3.org/2000/svg">
<g clip-path="url(#clip0_213_417)">
<path d="M68.9309 266.731C77.7601 273.332 82.345 282.959 76.5456 290.425C76.5456 290.425 71.7905 296.752 64.9662 305.792L14.889 267.373C17.7646 263.095 22.1117 257.441 22.1117 257.441C29.116 247.519 38.5974 249.066 44.4803 253.394C49.0042 256.689 50.7649 261.854 49.4283 266.283C55.1441 261.879 61.6793 261.153 68.9309 266.731ZM36.6568 274.493C37.4825 273.365 38.7259 271.78 38.7259 271.78C40.9943 268.622 39.8697 262.991 36.9234 260.719C33.9772 258.446 29.9417 261.246 28.7079 263.048C28.7079 263.048 27.4741 264.85 26.2404 266.652L36.6568 274.493ZM63.9862 273.722C59.4623 270.427 54.0581 271.976 51.552 274.709C51.552 274.709 49.0652 277.877 47.433 280.571L62.8488 292.56C64.3011 290.748 65.9429 288.272 65.9429 288.272C70.7077 282.163 68.51 277.017 63.9862 273.722Z" fill="white"/>
<path d="M108.961 251.199L102.744 259.12L92.8805 253.876L86.6442 261.361L93.3946 270.456L85.2305 278.9L46.373 226.877L56.844 216.146L108.961 251.199ZM84.4497 246.384L60.51 229.747L79.5242 253.811L84.4497 246.384Z" fill="white"/>
<path d="M111.952 249.537L68.9372 202.504L77.1495 195.151L110.735 231.896L117.893 225.463L89.3555 193.956L97.5678 186.602L126.105 218.109L131.792 213.051L98.6538 176.505L106.866 169.151L149.653 215.976L111.952 249.537Z" fill="white"/>
<path d="M133.765 163.593L144.271 178.42L152.76 172.365L159.073 181.48L150.585 187.535L156.432 196.015L170.238 186.448L177.712 197.04L163.906 206.607L153.717 213.83L146.244 203.237L135.728 188.192L129.415 179.077L123.577 170.815L117.254 161.483L127.442 154.26L141.248 144.693L147.561 153.808L133.765 163.593Z" fill="white"/>
<path d="M180.038 195.19L148.484 140.004L158.103 134.773L177.741 153.129L171.37 127.851L181.815 121.491L214.594 174.656L204.794 180.769L186.05 147.955L190.509 169.604L184.726 172.481L172.703 162.964L188.337 189.798L180.038 195.19Z" fill="white"/>
<path d="M199.383 112.85L216.206 126.961L214.844 106.049L227.95 100.445L231.336 167.144L218.23 172.748L215.255 140.11L186.952 118.861L199.383 112.85Z" fill="white"/>
<path d="M332.098 124.022L335.738 141.993L327.057 143.688L325.99 139.366L303.641 143.849L304.707 148.171L296.026 149.866L292.386 131.895L296.945 131.038C296.964 116.619 294.076 100.799 292.331 91.0453C291.492 86.9317 290.911 83.6805 290.824 81.7182L317.97 76.8043L328.413 124.84L332.098 124.022ZM305.626 129.343L318.221 127.039L309.961 88.7367L301.27 90.2132C303.368 103.009 306.201 122.545 305.626 129.343Z" fill="white"/>
<path d="M332.419 106.531C330.221 86.5302 335.449 76.0316 348.31 74.8076C351.359 74.4544 354.476 75.6273 356.985 77.9194C362.004 82.5036 364.802 91.3367 365.143 103.992C365.724 122.099 360.895 131.706 351.083 132.576C335.59 133.698 333.775 117.394 332.419 106.531ZM341.756 104.808C343.198 117.633 345.251 119.508 349.611 119.097C355.501 118.618 356.159 108.759 356.127 103.08C355.941 93.913 353.753 88.9852 351.491 87.3376C350.816 86.9305 348.593 86.1549 348.156 86.1743C344.67 86.5468 339.902 87.6315 341.756 104.808Z" fill="white"/>
<path d="M371.736 134.285L371.363 71.3854L380.311 70.7714L390.74 98.7099L400.431 70.3188L409.437 71.013L411.965 133.162L400.167 133.683L401.568 96.0466L394.599 116.671L387.37 116.554L381.86 100.85L382.024 134.267L371.736 134.285Z" fill="white"/>
<path d="M429.177 71.8879L434.893 97.1948L445.888 73.5522L459.957 74.8963L428.268 135.499L414.198 134.155L427.49 108.008L416.19 70.2775L429.177 71.8879Z" fill="white"/>
<path d="M281.732 183.048L270.695 185.939L241.769 66.4103L246.527 65.1076L281.732 183.048Z" fill="white"/>
<path d="M280.873 59.6569L208.46 75.5289L209.135 31.3705L257.384 18.533L280.873 59.6569Z" fill="white"/>
<path d="M269.77 90.7319L265.657 91.7876L254.961 47.9135L256.69 47.4001L269.77 90.7319Z" fill="white"/>
<path d="M269.32 100.364C271.13 100.284 272.532 98.7549 272.452 96.9486C272.373 95.1424 270.841 93.743 269.031 93.823C267.221 93.9031 265.818 95.4322 265.898 97.2384C265.978 99.0446 267.51 100.444 269.32 100.364Z" fill="white"/>
<path d="M57.6923 116.492C54.1131 119.709 57.2457 131.149 65.0596 139.541C72.4077 147.299 79.2962 149.616 82.914 147.272C87.6049 144.443 85.7318 141.686 82.3935 135.498C85.1856 134.282 87.0941 132.887 89.8572 131.018C97.5008 140.51 99.0945 151.8 92.5818 157.986C85.8507 164.182 69.8919 164.669 54.4922 148.091C39.0925 131.514 41.1616 113.946 51.1507 107.169C51.1507 107.169 57.4545 101.211 67.9641 106.207L66.6211 115.442C63.98 115.122 61.2715 113.275 57.6923 116.492Z" fill="white"/>
<path d="M94.7053 106.991C110.06 97.7926 118.5 105.502 121.533 109.737C123.863 112.911 127.477 120.398 126.141 124.826C124.624 130.136 119.782 134.501 115.329 137.756C114.484 138.449 107.268 143.574 106.423 144.266L68.7639 94.5937L79.5691 86.47L94.7053 106.991ZM107.464 63.8279L97.0765 71.4962L135.25 122.894L145.637 115.226L107.464 63.8279ZM115.946 122C116.059 119.592 114.385 116.389 113.681 115.328C112.512 113.632 109.488 109.615 100.514 114.599L111.191 128.327C113.745 126.685 116.052 124.398 115.946 122Z" fill="white"/>
<path d="M161.201 105.799L149.246 112.663L118.138 57.6761C118.983 56.9834 126.665 52.4931 127.728 51.7907C134.347 48.0028 138.916 47.3639 144.416 47.9945C149.262 48.6541 154.965 53.8635 157.095 57.4831C159.7 61.9555 163.46 72.7122 148.818 83.1901L161.201 105.799ZM134.848 59.3404L143.854 74.8897C152.115 68.6261 149.519 64.3718 148.558 62.4481C147.854 61.3869 145.763 58.6394 143.321 57.8736C140.879 57.1077 137.184 57.7079 134.848 59.3404Z" fill="white"/>
<path d="M56.5292 109.99C52.95 113.206 56.0826 124.646 63.8965 133.039C71.2446 140.797 78.1331 143.114 81.7509 140.77C86.4418 137.941 84.5687 135.184 81.2304 128.996C84.0225 127.78 85.931 126.385 88.6941 124.515C96.3377 134.008 97.9314 145.297 91.4187 151.484C84.6876 157.68 68.7288 158.167 53.3291 141.589C37.9294 125.012 39.9985 107.444 49.9876 100.667C49.9876 100.667 56.2914 94.7082 66.801 99.7051L65.458 108.94C62.817 108.62 60.1084 106.773 56.5292 109.99Z" fill="#E30613"/>
<path d="M93.761 100.479C109.116 91.2806 117.556 98.9904 120.589 103.225C122.919 106.399 126.533 113.886 125.197 118.314C123.68 123.624 118.838 127.989 114.385 131.244C113.54 131.937 106.324 137.062 105.479 137.755L67.8196 88.0818L78.6247 79.958L93.761 100.479ZM106.301 57.3256L95.9137 64.9939L134.087 116.392L144.474 108.723L106.301 57.3256ZM115.002 115.488C115.114 113.08 113.44 109.877 112.737 108.816C111.567 107.12 108.544 103.103 99.57 108.087L110.247 121.815C112.801 120.173 114.889 117.896 115.002 115.488Z" fill="#E30613"/>
<path d="M160.038 99.2969L148.073 105.943L117.193 51.1642C118.038 50.4714 125.72 45.9811 126.783 45.2787C133.402 41.4908 137.971 40.8519 143.472 41.4826C148.317 42.1422 154.02 47.3515 156.15 50.9711C158.756 55.4435 162.515 66.2003 147.873 76.6781L160.038 99.2969ZM133.685 52.8381L142.691 68.3874C150.951 62.1238 148.355 57.8695 147.395 55.9458C146.691 54.8846 144.599 52.1371 142.157 51.3713C139.716 50.6054 136.021 51.2056 133.685 52.8381Z" fill="#E30613"/>
<path d="M64.5482 261.682C73.3774 268.282 77.9623 277.91 72.1629 285.376C72.1629 285.376 67.4078 291.703 60.5835 300.743L10.516 262.542C13.3915 258.264 17.7387 252.61 17.7387 252.61C24.7429 242.688 34.2243 244.235 40.1073 248.563C44.6311 251.858 46.3918 257.023 45.0552 261.451C50.9799 256.82 57.3062 256.322 64.5482 261.682ZM32.2837 269.662C33.1095 268.533 34.3529 266.949 34.3529 266.949C36.6212 263.79 35.4967 258.16 32.5504 255.887C29.6041 253.615 25.5686 256.415 24.3349 258.217C24.3349 258.217 23.1011 260.019 21.8673 261.821L32.2837 269.662ZM59.6035 268.673C55.0796 265.377 49.6755 266.927 47.1694 269.659C47.1694 269.659 44.6825 272.828 43.0503 275.521L58.4661 287.51C59.9184 285.699 61.5602 283.223 61.5602 283.223C66.325 277.114 64.1273 271.968 59.6035 268.673Z" fill="#E30613"/>
<path d="M104.579 246.149L98.3615 254.07L88.4977 248.826L82.2614 256.311L89.0118 265.407L80.8477 273.85L41.9901 221.828L52.4612 211.097L104.579 246.149ZM80.0765 241.553L56.1368 224.916L75.1511 248.98L80.0765 241.553Z" fill="#E30613"/>
<path d="M107.58 244.706L64.5549 197.455L72.7672 190.101L106.352 226.847L113.511 220.413L84.9829 189.124L93.1952 181.771L121.733 213.278L127.42 208.22L94.2715 171.456L102.484 164.102L145.271 210.926L107.58 244.706Z" fill="#E30613"/>
<path d="M129.383 158.544L139.889 173.371L148.378 167.316L154.691 176.43L146.203 182.486L152.05 190.965L165.856 181.398L173.33 191.991L159.524 201.558L149.335 208.781L141.862 198.188L131.346 183.142L125.032 174.028L119.194 165.766L112.881 156.652L123.069 149.429L136.875 139.862L143.189 148.976L129.383 158.544Z" fill="#E30613"/>
<path d="M175.874 190.131L144.101 134.955L153.721 129.723L173.358 148.08L166.987 122.802L177.432 116.441L210.211 169.607L200.411 175.72L181.667 142.906L186.126 164.555L180.343 167.432L168.32 157.914L184.173 184.739L175.874 190.131Z" fill="#E30613"/>
<path d="M195.001 107.8L211.824 121.912L210.462 101L223.567 95.396L226.954 162.094L213.848 167.698L210.873 135.061L182.57 113.811L195.001 107.8Z" fill="#E30613"/>
<path d="M327.725 119.191L331.365 137.162L322.684 138.856L321.617 134.534L299.268 139.018L300.334 143.34L291.653 145.034L288.013 127.063L292.572 126.206C292.591 111.787 289.703 95.9676 287.958 86.2141C287.119 82.1005 286.538 78.8493 286.451 76.887L313.597 71.9731L324.04 120.009L327.725 119.191ZM301.244 124.294L313.838 121.989L305.578 83.6875L296.887 85.164C298.995 98.1783 301.828 117.714 301.244 124.294Z" fill="#E30613"/>
<path d="M328.255 101.472C326.057 81.4713 331.284 70.9727 344.146 69.7487C347.195 69.3955 350.312 70.5684 352.821 72.8605C357.84 77.4447 360.638 86.2778 360.979 98.9333C361.56 117.04 356.731 126.647 346.919 127.518C331.217 128.867 329.392 112.345 328.255 101.472ZM337.373 99.7584C338.816 112.584 340.869 114.459 345.229 114.048C351.118 113.569 351.777 103.709 351.745 98.0308C351.558 88.8638 349.37 83.936 347.108 82.2883C346.434 81.8812 344.21 81.1057 343.773 81.125C340.506 81.4879 335.529 82.8002 337.373 99.7584Z" fill="#E30613"/>
<path d="M367.353 129.236L366.98 66.3362L375.928 65.7222L386.358 93.6606L396.048 65.2696L405.054 65.9638L407.374 128.34L395.576 128.862L396.977 91.2251L390.008 111.85L382.778 111.732L377.268 96.0286L377.432 129.445L367.353 129.236Z" fill="#E30613"/>
<path d="M424.804 67.0567L430.52 92.3636L441.515 68.721L455.584 70.0651L423.895 130.668L409.825 129.324L423.117 103.177L411.817 65.4463L424.804 67.0567Z" fill="#E30613"/>
<path d="M277.567 177.989L266.322 181.108L237.614 61.5694L242.372 60.2668L277.567 177.989Z" fill="#E30613"/>
<path d="M276.5 54.8257L204.077 70.4796L204.761 26.5393L253.001 13.4838L276.5 54.8257Z" fill="#E30613"/>
<path d="M265.387 85.6827L261.274 86.7384L250.588 43.0823L252.317 42.569L265.387 85.6827Z" fill="#E30613"/>
<path d="M264.937 95.3148C266.747 95.2348 268.149 93.7057 268.07 91.8994C267.99 90.0932 266.458 88.6938 264.648 88.7738C262.838 88.8538 261.435 90.3829 261.515 92.1892C261.595 93.9954 263.127 95.3948 264.937 95.3148Z" fill="#E30613"/>
<path d="M545.448 245.884C469.455 205.552 382.178 197.177 300.11 222.433C217.813 247.48 150.222 303.116 109.794 378.961L94.0503 359.559L68.9989 357.389C115.073 270.591 192.386 207.097 286.554 178.248C380.723 149.399 480.312 158.978 567.29 205.159L545.448 245.884Z" fill="white"/>
<path d="M544.304 239.817C468.311 199.485 381.034 191.11 298.966 216.365C216.669 241.412 149.078 297.049 108.65 372.894L92.9062 353.491L67.8548 351.322C113.929 264.523 191.242 201.03 285.41 172.181C379.579 143.332 479.168 152.91 566.146 199.092L544.304 239.817Z" fill="#571D00"/>
<path d="M113.659 332.694C118.164 335.554 119.031 340.321 116.374 344.589C113.1 349.759 108.274 349.535 103.998 346.884L95.2069 341.156C91.8333 339.121 89.2276 334.648 92.7105 329.251C95.9941 324.3 101.038 324.514 104.64 326.758L113.659 332.694ZM101.964 330.59C100.833 329.766 97.954 329.019 96.3218 331.713C94.68 334.189 96.3154 336.519 97.6649 337.334L106.674 343.052C108.926 344.482 111.339 344.594 112.763 342.128C113.996 340.325 113.681 338.155 111.429 336.725L101.964 330.59Z" fill="white"/>
<path d="M112.036 320.751L114.305 317.592C117.816 312.849 121.977 312.884 125.817 315.554C130.34 318.849 130.752 323.2 127.876 327.478L122.713 334.479L100.312 317.992L108.977 306.031L112.37 308.502L106.381 316.632L112.036 320.751ZM122.215 328.165L124.483 325.007C126.135 322.749 125.611 320.806 123.359 319.376C121.325 317.937 119.349 317.806 117.707 320.282L115.439 323.44L122.215 328.165Z" fill="white"/>
<path d="M142.598 308.914L133.284 301.243L128.291 307.143L137.605 314.814L134.701 318.438L113.335 300.595L116.239 296.972L125.107 304.444L130.318 298.534L121.45 291.061L124.365 287.656L145.731 305.498L142.598 308.914Z" fill="white"/>
<path d="M153.564 284.617C157.451 288.377 157.445 293.184 154.103 296.827C149.917 301.163 145.053 300.067 141.621 296.723L134.074 289.411C131.327 286.692 129.357 281.755 133.753 277.191C137.721 272.865 142.813 274.169 145.779 276.878L153.564 284.617ZM142.428 280.303C141.515 279.47 138.826 278.059 136.737 280.336C134.649 282.613 135.847 284.963 136.998 286.223L144.763 293.526C146.816 295.401 149.03 295.959 150.91 293.91C152.372 292.316 152.494 290.126 150.669 288.459L142.428 280.303Z" fill="white"/>
<path d="M168.761 281.761L162.249 287.947L143.18 267.599L149.493 261.859C153.272 258.197 157.233 258.677 160.446 262.03C162.053 263.707 162.804 265.858 161.828 268.523L162.056 268.731C164.629 267.525 167.309 268.717 169.144 270.602C172.585 274.164 172.331 278.326 168.761 281.761ZM152.041 265.023L149.307 267.547L154.354 272.785L157.089 270.261C158.978 268.43 158.901 266.686 157.294 265.009C155.906 263.323 154.149 263.182 152.041 265.023ZM160.054 272.97L157.111 275.722L162.624 281.595L165.568 278.843C167.666 276.785 166.923 274.851 165.535 273.165C163.929 271.488 162.162 271.129 160.054 272.97Z" fill="white"/>
<path d="M176.964 274.189L159.376 252.684L162.974 249.903L174.772 264.237C174.772 264.237 174.772 264.237 174.991 264.227C174.438 261.63 173.895 259.251 173.343 256.654C172.494 252.322 171.428 248 170.361 243.678L173.741 240.907L191.329 262.412L187.73 265.193L176.17 251.286C176.475 253.238 176.999 255.181 177.523 257.124L180.552 271.19L176.964 274.189Z" fill="white"/>
<path d="M212.043 240.743C213.518 244.392 212.152 248.166 208.753 250.501C204.081 253.766 199.406 252.006 196.602 247.98L190.516 239.073C187.949 235.473 187.946 230.449 192.836 227.174C196.444 224.611 200.415 225.31 203.143 227.592L200.239 231.216C199.098 230.174 197.093 229.389 195.185 230.784C192.849 232.416 193.173 234.805 194.115 236.293L200.428 245.407C201.826 247.312 203.84 248.315 206.176 246.682C207.876 245.515 208.454 243.742 207.493 241.818L212.043 240.743Z" fill="white"/>
<path d="M225.56 239.49L217.877 243.981L203.689 220.141L210.934 215.669C215.416 213.068 219.188 214.212 221.547 218.04C222.726 219.954 223.05 222.343 221.399 224.601L221.408 224.819C224.229 224.257 226.491 225.905 227.908 228.245C230.742 232.926 229.614 237.126 225.56 239.49ZM218.751 229.087L215.342 231.204L219.593 238.225L223.002 236.108C225.566 234.684 225.251 232.513 224.072 230.599C222.883 228.467 221.097 227.672 218.751 229.087ZM212.637 219.526L209.655 221.406L213.431 227.574L216.631 225.685C218.758 224.28 219.118 222.517 217.938 220.603C216.55 218.917 214.992 218.33 212.637 219.526Z" fill="white"/>
<path d="M246.094 218.703C248.49 223.403 246.945 228.059 242.444 230.224C237.097 233.082 232.821 230.431 230.652 225.939L225.858 216.539C223.956 213.128 223.943 207.885 229.508 205.018C234.646 202.388 239.141 205.029 241.052 208.658L246.094 218.703ZM236.779 211.032C236.066 209.752 234.231 207.867 231.439 209.083C228.657 210.517 228.991 213.124 229.714 214.621L234.726 224.011C235.925 226.361 237.949 227.583 240.522 226.377C242.45 225.418 243.228 223.199 242.039 221.067L236.779 211.032Z" fill="white"/>
<path d="M253.146 224.726L241.949 199.225L246.033 197.515L253.567 214.44C253.567 214.44 253.567 214.44 253.786 214.43C254.107 211.795 254.001 209.396 254.104 206.77C254.348 202.39 254.592 198.01 254.836 193.631L258.701 191.93L269.899 217.432L265.825 219.36L258.528 202.861C258.396 204.833 258.264 206.805 258.133 208.777L257.23 223.017L253.146 224.726ZM241.583 190.94L244.802 189.486C245.287 190.557 246.865 191.58 248.365 190.858C249.866 190.136 250.007 188.383 249.522 187.312L252.523 185.868C253.275 188.02 253.448 191.944 249.365 193.654C245.519 195.79 242.772 193.072 241.583 190.94Z" fill="white"/>
<path d="M282.159 212.521L273.327 186.041L277.638 184.539L283.454 202.196C283.454 202.196 283.454 202.196 283.672 202.186C284.212 199.541 284.325 197.133 284.646 194.497C285.327 190.098 286.018 185.917 286.699 181.517L290.802 180.244L299.634 206.724L295.323 208.225L289.526 191.005C289.176 192.986 289.044 194.958 288.694 196.94L286.471 211.019L282.159 212.521Z" fill="white"/>
<path d="M315.439 202.748L312.515 191.081L304.936 192.945L307.86 204.612L303.529 205.678L296.643 178.675L301.193 177.6L304.097 188.831L311.677 186.967L308.772 175.736L313.103 174.67L319.988 201.673L315.439 202.748Z" fill="white"/>
<path d="M328.255 175.748L332.783 198.923L328.223 199.78L323.696 176.605L317.617 177.748L316.779 173.634L333.268 170.283L334.106 174.397L328.255 175.748Z" fill="white"/>
<path d="M341.464 197.228L337.618 169.654L352.844 167.452L353.464 171.575L342.588 173.148L343.571 180.532L352.928 179.245L353.548 183.368L344.191 184.656L345.184 192.258L356.06 190.685L356.69 195.026L341.464 197.228Z" fill="white"/>
<path d="M367.351 183.632L363.209 184.033L364.119 194.698L359.54 195.118L357.224 167.477L365.516 166.892C370.75 166.442 374.143 168.913 374.622 174.79C375.252 179.132 373.022 183.163 367.351 183.632ZM366.127 170.797L362.422 171.179L363.026 179.891L366.949 179.499C369.571 179.383 370.805 177.581 370.679 174.746C370.117 171.931 368.739 170.463 366.127 170.797Z" fill="white"/>
<path d="M387.695 193.218L379.165 193.377L378.596 165.658L383.184 165.455L383.447 176.366L387.38 176.193C393.289 176.15 395.846 179.532 396.058 184.329C396.09 190.007 392.948 193.205 387.695 193.218ZM387.364 180.781L383.431 180.955L383.579 189.25L387.512 189.076C390.352 188.95 391.377 187.376 391.48 184.75C391.364 182.133 390.204 180.655 387.364 180.781Z" fill="white"/>
<path d="M398.857 193.162L399.818 165.375L415.388 165.998L415.134 170.16L404.171 169.77L403.843 177.212L413.267 177.451L413.013 181.613L403.59 181.374L403.272 189.034L414.234 189.424L413.99 193.804L398.857 193.162Z" fill="white"/>
<path d="M426.913 184.057L422.951 183.577L421.884 194.11L417.267 193.659L419.767 166.022L428.117 166.746C433.39 167.168 436.375 170.313 435.751 176.02C435.536 181.054 432.403 184.47 426.913 184.057ZM427.873 171.126L424.14 170.854L423.423 179.405L427.157 179.677C429.798 179.997 431.26 178.403 431.581 175.768C431.684 173.142 430.514 171.446 427.873 171.126Z" fill="white"/>
</g>
<defs>
<clipPath id="clip0_213_417">
<rect width="558.545" height="358.794" fill="white" transform="translate(0 24.6688) rotate(-2.53135)"/>
</clipPath>
</defs>
</svg>
