<svg width="56" height="51" viewBox="0 0 56 51" fill="none" xmlns="http://www.w3.org/2000/svg">
<path d="M52.8173 6.38464C54.181 7.00003 55.2416 6.2308 55.6961 5.00003C56.1506 3.76926 55.8476 2.53849 54.484 1.9231C53.4234 1.46157 52.5143 1.15387 51.4537 1.00003C48.1203 0.538488 45.09 1.30772 42.3628 3.46157C40.6961 4.69233 39.3325 5.61541 37.0597 4.84618C34.484 4.07695 31.9082 5.15387 29.6355 6.53849C26.9082 8.2308 25.09 10.6923 23.2719 13.1539C22.0597 14.8462 17.3628 19.1539 15.6961 20.3846C14.181 21.4616 12.6658 22.5385 11.4537 23.9231C5.99913 30.077 2.81731 37.4616 1.15065 45.4616C0.847616 46.6923 0.847616 47.9231 1.30216 49.1539C1.75671 50.2308 2.51428 51 3.7264 50.8462C4.78701 50.8462 5.39307 50.2308 5.54459 49.1539C5.6961 48.3846 5.54459 47.6154 5.6961 46.8462C7.05974 39.1539 10.09 32.2308 15.3931 26.6923C15.9991 26.077 16.6052 24.8462 18.1203 25.6154C17.3628 29 16.9082 32.3846 17.5143 35.7693C18.1203 39 19.6355 40.8462 22.3628 41.3077C25.2416 41.7693 27.3628 40.3846 29.0294 38.2308C29.9385 37.1539 30.3931 35.7693 30.5446 34.3846C31.3022 29.3077 30.3931 24.8462 26.7567 21C25.9991 20.2308 24.787 19.7693 25.5446 18.3846C27.8173 14.3846 30.09 10.2308 36.3022 9.46157C34.6355 13.6154 32.9688 16.8462 32.5143 20.6923C32.2113 24.077 32.3628 27.1539 33.8779 30.2308C34.9385 32.2308 36.4537 33.7693 38.8779 33.7693C41.3022 33.7693 42.8173 32.3846 43.8779 30.2308C45.2416 27.6154 45.8476 24.6923 45.8476 21.6154C45.6961 18.077 45.2416 14.3846 43.7264 11.1539C42.8173 9.30772 43.2719 8.2308 44.787 7.30772C47.5143 5.61541 50.09 5.15387 52.8173 6.38464ZM26.1506 33.7693C25.8476 35.1539 25.09 36.6923 23.4234 36.5385C21.9082 36.3846 21.9082 34.6923 21.9082 33.6154C21.7567 30.5385 22.0597 27.4616 23.5749 24.077C26.3022 27.3077 26.9082 30.3846 26.1506 33.7693ZM39.181 29.4616C36.1507 23.7693 37.2113 19 39.787 14.3846C41.6052 19.3077 42.5143 24.077 39.181 29.4616Z" fill="#5B1A0D"/>
</svg>
