<svg width="177" height="27" viewBox="0 0 177 27" fill="none" xmlns="http://www.w3.org/2000/svg">
<path d="M141.203 26.194H137.763C137.763 26.3955 137.829 26.597 137.829 26.7985H141.865V2.01492H141.27V26.194H141.203Z" fill="#5A1404"/>
<path d="M149.077 10.0746V26.194H145.504V26.7985H149.673V10.9477C149.474 10.6791 149.275 10.3433 149.077 10.0746Z" fill="#5A1404"/>
<path d="M161.583 26.194H158.142C158.142 26.3955 158.208 26.597 158.208 26.7985H162.245V2.01492H161.649V26.194H161.583Z" fill="#5A1404"/>
<path d="M68.4185 6.24626H70.5359C70.9329 6.24626 71.2638 6.24626 71.5946 6.31343C71.1976 5.91044 70.4036 5.64178 68.9479 5.64178H67.7568V11.1492C67.9553 11.0821 68.1538 11.0149 68.3524 10.9478V6.24626H68.4185Z" fill="#5A1404"/>
<path d="M78.41 7.25373C78.41 10.3433 77.2851 12.5597 74.8369 14.306L75.1678 14.9776C77.4175 13.4328 78.9393 11.3507 78.9393 8.46269C78.9393 7.25373 78.6747 6.24627 78.2115 5.30597C78.3438 5.97761 78.41 6.58209 78.41 7.25373Z" fill="#5A1404"/>
<path d="M69.1462 17.0597C68.7492 17.194 68.2861 17.3955 67.7567 17.5298V26.194H63.9189V26.7985H68.3522V18.0672C68.6831 17.9328 69.0801 17.8657 69.4109 17.7313L69.1462 17.0597Z" fill="#5A1404"/>
<path d="M10.7195 5.57462C10.2563 5.30596 9.79312 5.2388 9.32995 5.2388C6.15387 5.2388 5.49219 9.40298 5.49219 12.8284C5.49219 14.9776 5.75686 17.3284 6.68322 18.8731C6.28621 17.5298 6.15387 15.8507 6.15387 14.1716C6.15387 9.67164 7.21256 5.70895 10.7195 5.57462Z" fill="#5A1404"/>
<path d="M34.3415 5.84329H32.3564V6.44777H34.3415V5.84329Z" fill="#5A1404"/>
<path d="M45.3252 5.84329H40.6935V26.194H36.9219V26.7985H41.3551V6.44777H45.3252V5.84329Z" fill="#5A1404"/>
<path d="M19.6524 12.8284C19.6524 21.3582 15.6823 26.6642 9.33018 26.6642C8.99934 26.6642 8.60233 26.6642 8.27148 26.597C9.0655 26.8657 9.99186 27 10.9182 27C17.0057 27 20.3141 21.7612 20.3141 14.1717C20.3141 11.0821 19.7848 8.39554 18.7261 6.31345C19.3216 8.19404 19.6524 10.3433 19.6524 12.8284Z" fill="#5A1404"/>
<path d="M33.1504 26.194H22.8281V26.7985H33.7459V22.3657H33.1504V26.194Z" fill="#5A1404"/>
<path d="M103.09 22.097L103.62 20.0821L102.892 2.01492H102.23L103.09 22.097Z" fill="#5A1404"/>
<path d="M27.2615 2.01492H26.666V19.8134H27.2615V2.01492Z" fill="#5A1404"/>
<path d="M169.655 2.01492V26.194H165.884V26.7985H170.317V2.01492H169.655Z" fill="#5A1404"/>
<path d="M85.6218 12.291L85.0263 26.194H74.9688L75.2334 26.7985H85.688L86.2173 14.1716C86.0188 13.5 85.8203 12.8955 85.6218 12.291Z" fill="#5A1404"/>
<path d="M96.6058 12.291C95.5471 15.5821 94.6207 18.806 94.2237 20.7537L94.0914 21.4925H90.4521C90.5183 21.694 90.5183 21.8955 90.5845 22.097H94.7531C95.1501 20.3507 95.8779 17.597 96.8043 14.709L96.6058 12.291Z" fill="#5A1404"/>
<path d="M113.148 10.5448L112.751 9.06717L111.494 14.0373H112.222L113.148 10.5448Z" fill="#5A1404"/>
<path d="M122.61 22.7687V20.6194L117.581 2.08209H116.986L122.61 22.7687Z" fill="#5A1404"/>
<path d="M115.464 19.9478H110.038L108.45 26.194H99.6494V26.7985H108.979L110.567 20.5522H115.662L115.464 19.9478Z" fill="#5A1404"/>
<path d="M128.697 10.0746V26.194H119.235L119.368 26.7985H129.293V10.9477C129.094 10.6791 128.896 10.3433 128.697 10.0746Z" fill="#5A1404"/>
<path d="M51.7441 19.8134H52.3397V16.3881H59.8828V11.9552H59.2873V15.7836H51.7441V19.8134Z" fill="#5A1404"/>
<path d="M60.6769 2.08209V5.84329H51.7441V9.40299H52.3397V6.44776H61.2724V2.08209H60.6769Z" fill="#5A1404"/>
<path d="M60.6767 26.194H47.9062V26.7985H61.2722V22.4328H60.6767V26.194Z" fill="#5A1404"/>
<path d="M136.042 12.4254C132.601 6.31343 130.021 3.15672 127.44 0.402985H123.536V25.1866H127.705V7.18657C130.55 10.6791 135.645 19.0075 136.24 25.2537H140.277V0.470149H136.108V12.4254H136.042Z" fill="#5A1404"/>
<path d="M156.422 12.4254C152.981 6.31343 150.4 3.15672 147.82 0.402985H143.916V25.1866H148.085V7.18657C150.93 10.6791 156.025 19.0075 156.62 25.2537H160.657V0.470149H156.488V12.4254H156.422Z" fill="#5A1404"/>
<path d="M77.4167 7.25374C77.4167 3.29105 74.6376 0.470154 69.3441 0.470154H62.3965V25.2537H66.8298V16.791C67.8884 16.4552 68.8148 16.1194 69.675 15.7836L73.5789 25.1866H78.74L73.5789 13.9702C76.1595 12.3582 77.4167 10.4105 77.4167 7.25374ZM66.8298 4.63433H68.9471C71.5939 4.63433 72.9834 5.6418 72.9834 7.45523C72.9834 10.5448 69.4765 11.6866 66.8298 12.4925V4.63433Z" fill="#5A1404"/>
<path d="M9.32972 0C3.30841 0 0 5.30597 0 12.8284C0 20.4179 3.30841 25.6567 9.32972 25.6567C15.4172 25.6567 18.7256 20.4179 18.7256 12.8284C18.7256 5.30597 15.4172 0 9.32972 0ZM9.32972 21.4254C5.69047 21.4254 4.56561 17.3955 4.56561 12.8284C4.56561 8.26119 5.69047 4.23134 9.32972 4.23134C12.969 4.23134 14.16 8.26119 14.16 12.8284C14.16 17.3955 12.969 21.4254 9.32972 21.4254Z" fill="#5A1404"/>
<path d="M25.6735 0.470154H21.2402V25.2537H32.158V20.8209H25.6735V0.470154Z" fill="#5A1404"/>
<path d="M168.729 0.470154H164.296V25.2537H168.729V0.470154Z" fill="#5A1404"/>
<path d="M30.7681 0.470154V4.90299H35.3337V25.2537H39.7669V4.90299H44.2664V0.470154H30.7681Z" fill="#5A1404"/>
<path d="M95.8779 0.470154C94.2237 4.56717 92.768 8.19403 91.0477 14.7761C89.3273 8.12687 87.9378 4.56717 86.2174 0.470154H80.9239L79.8652 25.2537H84.0338L84.8279 7.3209C86.5482 11.8209 88.2686 17.597 88.8641 20.6194H93.1651C93.7606 17.6642 95.4809 11.8881 97.2013 7.3209L97.9953 25.2537H102.164L101.105 0.470154H95.8779Z" fill="#5A1404"/>
<path d="M109.244 19.0075H116.191L117.779 25.2537H122.213L115.596 0.470154H109.972L103.289 25.2537H107.722L109.244 19.0075ZM112.751 5.17165L115.265 15.0448H110.302L112.751 5.17165Z" fill="#5A1404"/>
<path d="M46.3179 0.470154V25.2537H59.6839V20.8209H50.7511V14.7761H58.2943V10.4105H50.7511V4.90299H59.6839V0.470154H46.3179Z" fill="#5A1404"/>
<path d="M175.081 22.8358C174.022 22.8358 173.162 23.7089 173.162 24.7164C173.162 25.791 174.022 26.597 175.081 26.597C176.14 26.597 176.934 25.7239 176.934 24.6492C177 23.709 176.14 22.8358 175.081 22.8358ZM175.081 26.3284C174.221 26.3284 173.559 25.6567 173.559 24.7164C173.559 23.8433 174.221 23.1716 175.081 23.1716C175.941 23.1716 176.603 23.8433 176.603 24.7164C176.603 25.6567 175.941 26.3284 175.081 26.3284Z" fill="#5A1404"/>
<path d="M176.008 24.2463C176.008 23.7761 175.743 23.5746 175.214 23.5746H174.354V25.8582H174.751V24.9179H175.081L175.677 25.8582H176.074L175.478 24.9179C175.809 24.8507 176.008 24.6492 176.008 24.2463ZM174.751 23.9776H175.148C175.478 23.9776 175.611 24.0448 175.611 24.3134C175.611 24.6492 175.412 24.6492 175.081 24.6492H174.751V23.9776Z" fill="#5A1404"/>
</svg>
